<?xml version="1.0" encoding="UTF-8"?>
<!DOCTYPE svg PUBLIC "-//W3C//DTD SVG 1.1//EN" "http://www.w3.org/Graphics/SVG/1.1/DTD/svg11.dtd">
<!-- Creator: CorelDRAW -->
<svg xmlns="http://www.w3.org/2000/svg" xml:space="preserve" width="1677px" height="1477px" version="1.1" style="shape-rendering:geometricPrecision; text-rendering:geometricPrecision; image-rendering:optimizeQuality; fill-rule:evenodd; clip-rule:evenodd"
viewBox="0 0 1595.14 1405.2"
 xmlns:xlink="http://www.w3.org/1999/xlink"
 xmlns:xodm="http://www.corel.com/coreldraw/odm/2003">
 <defs>
  <style type="text/css">
   <![CDATA[
    .str0 {stroke:#373435;stroke-width:5.62;stroke-miterlimit:10}
    .fil2 {fill:#373435;fill-rule:nonzero}
    .fil0 {fill:#282828;fill-rule:nonzero}
    .fil1 {fill:#219D96;fill-rule:nonzero}
   ]]>
  </style>
 </defs>
 <g id="Capa_x0020_1">
  <metadata id="CorelCorpID_0Corel-Layer"/>
  <g id="_2524931987872">
   <path class="fil0" d="M724.62 718.42c10.62,-8.76 20.45,-16.46 29.43,-23.15 159.38,-104.56 287.14,-374.17 180.2,-516.15 -46.82,-52.09 -73.11,-65.47 -135.5,-66.73 -152.95,-0.06 -186.85,126.88 -139.35,126.88 6.03,21.73 5.01,23.93 5.01,23.93 -99.7,1.99 -67.93,-196.07 137.91,-181.67 135.25,13.52 174.99,101.16 189.09,143.12 88.62,284.02 -202.67,473.83 -216.95,485.05 -8.16,6.41 -17.47,13.37 -27.98,20.82 -142.56,125.54 -100.44,295.33 -100.44,295.33 10.62,-26.39 20.1,-46.03 28.44,-58.91 8.33,-12.89 16.86,-23.73 25.59,-32.51 8.72,-8.79 16.45,-15.71 23.16,-20.75 6.72,-5.03 11.59,-8.33 14.6,-9.9 3.01,-1.57 6.52,-2.94 10.52,-4.12 3.99,-1.18 7.99,-1.42 12.01,-0.72 4.01,0.7 7.36,1.42 10.03,2.17 2.68,0.76 5.66,3.29 8.92,7.6 3.27,4.32 5.38,7.81 6.35,10.46 0.98,2.65 2.22,10.14 3.79,22.45 1.56,12.32 1.04,27.29 -1.57,44.91 -2.59,17.63 -4.09,26.89 -4.47,27.8 -0.39,0.9 -1.61,6.6 -3.65,17.08 -2.05,10.47 -2.96,16.18 -2.73,17.14 0.25,0.96 -0.03,4.53 -0.82,10.73 -0.79,6.19 -0.88,15.57 -0.27,28.12 0.59,12.55 3.19,23.54 7.79,32.96 4.59,9.42 8.73,14.58 12.42,15.49 3.68,0.91 6.78,1.15 9.32,0.72 2.54,-0.44 5.81,-2.22 9.8,-5.35 3.98,-3.14 7.69,-6.6 11.12,-10.4 3.39,-3.81 5.64,-6.1 6.72,-6.88 1.09,-0.77 2.09,-1.79 3.06,-3.04 0.96,-1.26 2.47,-1.49 4.62,-0.71 2.12,0.79 3.26,2.44 3.38,4.96 0.11,2.5 -0.4,5.12 -1.56,7.85 -1.13,2.72 -3.27,6.15 -6.41,10.29 -3.11,4.14 -6.71,7.93 -10.72,11.38 -4.02,3.44 -9.39,6.82 -16.15,10.14 -6.73,3.3 -13.58,5.55 -20.55,6.74 -6.97,1.19 -12.91,0.54 -17.79,-1.95 -4.89,-2.49 -9.6,-6.79 -14.13,-12.92 -4.54,-6.13 -7.65,-11.88 -9.36,-17.25 -1.68,-5.37 -2.78,-9.6 -3.24,-12.68 -0.47,-3.09 -0.72,-10.57 -0.74,-22.45 -0.03,-11.89 2.19,-28.6 6.65,-50.16 4.47,-21.54 8.04,-39.55 10.72,-54.05 2.66,-14.49 3.21,-27.74 1.63,-39.75 -1.58,-12 -3.11,-19 -4.61,-20.98 -1.49,-1.99 -2.84,-3.7 -4.06,-5.13 -1.22,-1.41 -2.48,-2.96 -3.75,-4.62 -1.28,-1.65 -3.82,-2.24 -7.6,-1.75 -3.8,0.49 -8.49,2.59 -14.09,6.31 -5.6,3.7 -11.86,9.28 -18.76,16.73 -6.89,7.44 -13.09,14.83 -18.58,22.14 -5.48,7.32 -10.61,15.61 -15.39,24.86 -4.77,9.25 -9.39,18.59 -13.86,28.02 -4.48,9.43 -11.15,31.08 -19.99,64.95l-12.61 54.39 -3.37 19.44c-0.75,5.57 -6.07,15.79 -8.14,22.51 -0.44,5.6 -23.02,9.84 -21.11,-2.28 13.75,-62.32 -15.5,-348.59 128.02,-456.51z"/>
   <path class="fil0" d="M1011.92 859.05c-5.17,-0.59 -9.74,3.46 -13.7,12.14 -3.97,8.69 -8.25,20.85 -12.8,36.5 -4.57,15.66 -6.42,36.28 -5.52,61.89 2.71,-5.55 7.83,-18.05 15.39,-37.51 7.57,-19.47 13.51,-36.36 17.87,-50.66 4.34,-14.3 3.92,-21.75 -1.24,-22.36zm-50.54 -32.67c-7.57,0.37 -15.39,2.17 -23.48,5.38 -8.08,3.22 -18.64,11.72 -31.66,25.5 -13.04,13.78 -22.06,26.39 -27.07,37.86 -5.03,11.45 -9.66,22.01 -13.94,31.67 -4.26,9.65 -7.85,19.28 -10.77,28.86 -2.92,9.58 -5.58,20.4 -7.98,32.45 -2.4,12.07 -2.92,24.01 -1.57,35.83 1.34,11.84 11.67,19.02 30.99,21.57l8.99 -1.35 26.28 -10.32 22.24 -14.61 15.5 -14.38c1.34,-1.79 2.84,-3.89 4.49,-6.29 -1.04,-48.52 3.67,-84.53 14.15,-108.04 10.49,-23.51 16.25,-35.94 17.3,-37.29 1.04,-1.35 2.48,-5.39 4.27,-12.13l-1.35 -1.58 -4.95 -5.61c-6.73,-5.4 -13.88,-7.9 -21.44,-7.52zm-11.13 -7.99c10.19,-1.94 18.13,-2.08 23.83,-0.44l13.69 4.72 10.33 11.23 3.61 4.72 10.32 -2.7c4.79,0 9.36,1.95 13.69,5.85l3.15 6.73 -0.43 7.19c-0.17,4.94 -0.61,12.88 -1.36,23.81 -0.75,10.93 -6.33,27.82 -16.73,50.65 -10.4,22.85 -20.85,44.44 -31.35,64.81 1.05,4.79 2.48,9.62 4.28,14.49 1.8,4.87 5.54,9.43 11.23,13.7 5.69,4.27 15.56,2.58 29.65,-5.06l8.99 -10.78c1.8,-4.19 4.41,-8.23 7.85,-12.13l4.05 -14.6c2.54,-1.49 5.17,-3.44 7.87,-5.84l5.61 0.9 3.59 4.71 -8.98 21.57c-1.65,4.19 -3.59,8.53 -5.84,13.03l-6.74 12.8c-14.52,15.72 -27.94,23.44 -40.21,23.14 -12.29,-0.3 -20.4,-2.09 -24.36,-5.39 -3.99,-3.29 -7.4,-7.53 -10.23,-12.69 -2.84,-5.17 -6.29,-10.29 -10.34,-15.39l-23.14 18.87c-9.87,7.18 -18.68,12.81 -26.38,16.85 -7.72,4.04 -16.44,7.79 -26.18,11.23 -9.72,3.45 -19.17,4.27 -28.3,2.47 -9.14,-1.8 -16.02,-4.45 -20.67,-7.97 -4.64,-3.52 -8.46,-7.94 -11.46,-13.26 -2.98,-5.31 -5.27,-16.51 -6.84,-33.58 -1.58,-17.07 0.71,-34.89 6.84,-53.46 6.15,-18.56 12.18,-33.43 18.1,-44.6 5.91,-11.15 13.84,-22.63 23.81,-34.47 9.96,-11.83 20.25,-22.16 30.88,-31 10.64,-8.83 20.44,-15.57 29.44,-20.22 8.97,-4.64 18.55,-7.94 28.73,-9.89z"/>
   <path class="fil0" d="M1322.33 900.74l-1.35 -25.62 22.24 -7.85 -3.59 12.12 -12.58 62.9 -4.72 -41.55zm-1.46 -86.93c0.98,-18.43 2.33,-34.94 4.04,-49.54 1.73,-14.6 4.39,-28.37 7.98,-41.33 3.59,-12.95 7.18,-22.65 10.79,-29.09 3.59,-6.43 7.59,-10.14 12.01,-11.12 4.42,-0.97 8.28,-0.22 11.57,2.25 3.3,2.47 5.65,7.83 7.07,16.06 1.43,8.24 0.49,23.13 -2.81,44.7 -3.3,21.57 -6.14,36.65 -8.53,45.27 -2.4,8.6 -7.19,27.44 -14.38,56.48l-2.69 4.05 -27.17 8.09c0.44,-12.14 1.15,-27.41 2.12,-45.82zm-205.9 330.65c-3.23,9.81 -6.04,16.67 -8.44,20.56 -2.38,3.89 -5.87,6.66 -10.44,8.31 -4.57,1.64 -10.36,2.02 -17.39,1.12 -7.06,-0.89 -11.1,-11.72 -12.15,-32.45 -1.04,-20.75 8.85,-54.78 29.65,-102.11l3.61 -11.45c11.38,35.65 17.54,61.44 18.52,77.38 0.99,15.95 -0.15,28.84 -3.36,38.64zm307.55 -85.59c-3.45,0.76 -7.72,1.58 -12.81,2.48 -3.45,12.87 -5.8,22.71 -7.07,29.53 -1.27,6.82 -4.77,13.29 -10.44,19.43 -5.7,6.15 -11.92,9.25 -18.66,9.33 -6.74,0.07 -12.68,-4.12 -17.85,-12.59 -5.17,-8.45 -11.65,-29.83 -19.44,-64.13 -1.64,-8.38 -2.83,-19.91 -3.59,-34.59l2.26 -18.19c8.07,-29.2 15.42,-57.8 22.01,-85.82l8.97 -39.98 20.68 -5.39c4.34,0.6 8.22,0.9 11.67,0.9l3.6 -6.07 -1.79 -3.59c-0.75,-6.59 -2.85,-10.18 -6.3,-10.78 -1.04,-1.04 -2.25,-1.65 -3.59,-1.8 -2.1,2.25 -4.19,4.04 -6.3,5.4l-13.92 3.36 1.8 -4.49c3,-13.03 7.37,-28.87 13.14,-47.51 5.77,-18.64 10.15,-38.67 13.15,-60.09 2.98,-21.41 3.59,-35.82 1.79,-43.23 -1.79,-7.42 -5.73,-14.01 -11.8,-19.77 -6.07,-5.77 -14.18,-7.64 -24.36,-5.62 -10.2,2.03 -19.03,7.97 -26.52,17.86 -7.49,9.88 -12.94,19.95 -16.38,30.21 -3.46,10.26 -6.42,23.03 -8.88,38.3 -2.48,15.28 -4.16,31.33 -5.06,48.18 -0.9,16.85 -0.08,38.16 2.48,63.91l-21.57 9.65c-9.58,2.85 -15.57,5.62 -17.97,8.32 1.8,6.74 7.49,9.96 17.07,9.66l10.79 -5.39 10.77 -3.6c0.46,6.14 1.35,29.58 2.71,70.31l-2.48 43.58 -3.6 13.7 -8.53 29.65c-6.6,24.12 -12.01,40.85 -16.28,50.21 -4.28,9.36 -8.43,18.45 -12.47,27.29 -4.05,8.84 -7.3,15.05 -9.78,18.64 -0.35,0.53 -0.86,0.64 -1.26,1.06 -4.33,1.22 -8.31,0.51 -11.9,-2.28 -5.03,-3.89 -7.32,-12.21 -6.86,-24.94 0.44,-12.72 2.02,-28.53 4.72,-47.39 2.69,-18.88 4.45,-33.66 5.27,-44.37 0.83,-10.71 0.83,-20.89 0,-30.55 -0.82,-9.66 -1.53,-16.14 -2.13,-19.44 -0.6,-3.28 -1.49,-6.72 -2.69,-10.32 -1.2,-3.59 -3.29,-8.54 -6.29,-14.83 -3.01,-6.29 -5.39,-10.63 -7.19,-13.03 -1.79,-2.39 -4.04,-4.63 -6.73,-6.74 -2.7,-2.09 -4.72,-3.73 -6.07,-4.93 -1.36,-1.21 -2.7,-2.1 -4.06,-2.7 -1.33,-0.6 -3.5,-1.5 -6.5,-2.7 -3.01,-1.2 -6.29,-1.94 -9.89,-2.25 -3.59,-0.3 -7.18,0 -10.77,0.9 -3.61,0.9 -7.23,2.29 -10.91,4.16 -3.67,1.87 -6.96,4.42 -9.88,7.64 -2.91,3.22 -9.32,10.22 -19.19,21 -9.9,10.78 -15.59,17.67 -17.09,20.67 -1.48,2.99 -6.43,9.28 -14.82,18.86 -1.79,-3.29 -2.84,-5.76 -3.15,-7.41 -0.29,-1.65 -1.04,-4.12 -2.23,-7.41 -1.21,-3.29 -2.11,-6.88 -2.71,-10.78 -0.59,-3.9 -1.11,-6.86 -1.57,-8.87 -0.44,-2.03 -1.05,-4.39 -1.8,-7.08 -0.75,-2.7 -1.41,-5.69 -2.02,-8.99 -0.6,-3.29 -3.59,-10.4 -8.99,-21.34l-9.87 -7.86c-4.95,3.29 -11.23,6.97 -18.87,11 8.98,19.18 15.11,35.8 18.41,49.88 3.3,14.07 6.36,25.08 9.22,33.02 2.84,7.94 3.82,13.41 2.92,16.4 -0.9,2.99 -4.09,9.73 -9.55,20.21 -5.48,10.48 -10.34,22.05 -14.6,34.71 -4.28,12.66 -8.39,26.81 -12.35,42.45 -3.97,15.65 -4.77,30.17 -2.37,43.58 2.39,13.4 5.99,22.66 10.79,27.73 4.8,5.1 9.69,8.25 14.72,9.45 5.01,1.19 11.81,0.9 20.43,-0.9 8.61,-1.8 15.91,-5.35 21.9,-10.67 5.99,-5.32 9.88,-9.47 11.68,-12.47 1.79,-3 4.05,-7.64 6.74,-13.93 2.7,-6.29 4.64,-15.12 5.84,-26.5 1.19,-11.38 0.76,-24.86 -1.35,-40.44 -2.09,-15.56 -7.26,-33.58 -15.5,-54.02 -8.23,-20.44 -10.22,-34.44 -5.94,-42.01 4.25,-7.55 8.97,-14.45 14.14,-20.66 5.16,-6.22 10.34,-12.32 15.51,-18.31 5.15,-5.99 10.77,-11.6 16.84,-16.85 6.07,-5.23 11.46,-7.59 16.17,-7.07 4.72,0.52 8.62,1.72 11.69,3.59 3.06,1.88 6.48,6.55 10.21,14.04 3.74,7.49 6.02,12.1 6.85,13.81 0.82,1.73 2.47,11.32 4.95,28.76 2.47,17.44 2.66,36.96 0.56,58.51 -2.09,21.57 -3.11,37.4 -3.04,47.51 0.08,10.11 2.02,20.52 5.84,31.23 3.82,10.7 9.25,17.48 16.29,20.33 7.05,2.85 6.61,3.11 10.14,3.71 9.82,1.07 18.7,-10.64 20.23,-12.37 4.86,-5.54 11.4,-15.65 19.64,-30.32 8.24,-14.68 15.42,-30.85 21.58,-48.53l4.93 -17.29c12.28,49.56 23.1,76.82 32.47,81.76 9.35,4.95 18.82,6.26 28.41,3.94 9.58,-2.33 17.07,-6.11 22.45,-11.35 5.41,-5.24 9.4,-10.18 12.03,-14.82 2.62,-4.65 7.22,-14.38 13.81,-29.21l-2.69 -13.25z"/>
   <path class="fil0" d="M1485.64 785.51c4.92,0.9 8.89,3.75 11.89,8.53l6.07 13.04c-1.5,4.34 -3.52,9.14 -6.07,14.37 -3.44,2.25 -7.03,5.02 -10.79,8.31 -4.33,-1.49 -8.68,-3.88 -13.02,-7.18 -1.8,-3.74 -3,-8.09 -3.59,-13.03l3.59 -16.85 11.92 -7.19zm-17.53 137.48c4.63,0.59 8.83,2.69 12.58,6.28 1.49,1.2 2.7,2.7 3.59,4.5l-2.69 9.88c-9.74,42.53 -15.51,83.38 -17.3,122.54 -1.8,39.16 0,61.55 5.39,67.16 5.4,5.61 11.19,7.45 17.41,5.51 6.22,-1.95 10.96,-9.52 14.26,-22.7 1.94,-1.04 4.04,-1.64 6.3,-1.79l0.89 7.19 -0.89 1.79c-1.06,8.99 -4.16,15.88 -9.34,20.67 -5.15,4.79 -10.13,7.34 -14.92,7.64 -4.8,0.29 -10.01,-0.75 -15.63,-3.15 -5.61,-2.39 -10.88,-8.12 -15.82,-17.18 -4.95,-9.06 -8.85,-26.39 -11.69,-52l4.72 -79.52c8.09,-55.86 15.8,-81.46 23.14,-76.82z"/>
   <path class="fil1" d="M505.78 190.53c13.07,111.22 132.04,60.04 147.33,13.52 24.25,-73.81 -18.54,-198.15 -182.78,-204.05 -348.27,0 -521.97,472.34 -250.79,661.1 256.11,171.04 347.17,274.82 323.46,412.96 -23.57,137.35 -232.18,84.41 -168.38,-70l-33.68 -17.73c0,0 -87.28,166.83 101.03,194.96 172.91,6.34 130.72,-211.72 122.74,-245.37 -15.95,-68.65 -122.96,-160.28 -313.11,-289.23 -199.99,-118.96 -189.36,-588.2 218.73,-616.56 241.05,-10.63 99.25,277.38 67.35,148 -9.53,3.32 -31.9,12.4 -31.9,12.4z"/>
  </g>
  <g id="_2524931989072">
   <path class="fil2 str0" d="M182.99 1357.35l-13.48 -37.21 -13.56 37.21 27.04 0zm-10.91 -44.73l32.18 88.71 -5.27 0 -14.18 -39.02 -30.68 0 -14.43 39.02 -5.33 0 32.56 -88.71 5.15 0z"/>
   <path class="fil2 str0" d="M351.91 1387.21l3.83 3.38c-8.66,7.87 -18.85,11.8 -30.56,11.8 -12.59,0 -23.3,-4.42 -32.15,-13.26 -8.84,-8.86 -13.27,-19.57 -13.27,-32.16 0,-12.5 4.43,-23.2 13.27,-32.09 8.85,-8.89 19.56,-13.33 32.15,-13.33 11.71,0 21.9,3.95 30.56,11.85l-3.83 3.4c-7.62,-6.74 -16.52,-10.11 -26.73,-10.11 -11.12,0 -20.62,3.93 -28.51,11.8 -7.89,7.86 -11.83,17.36 -11.83,28.48 0,11.17 3.94,20.68 11.83,28.55 7.89,7.86 17.39,11.8 28.51,11.8 10.21,0 19.11,-3.38 26.73,-10.11z"/>
   <path class="fil2 str0" d="M507.09 1387.21l3.83 3.38c-8.66,7.87 -18.85,11.8 -30.56,11.8 -12.59,0 -23.31,-4.42 -32.15,-13.26 -8.85,-8.86 -13.27,-19.57 -13.27,-32.16 0,-12.5 4.42,-23.2 13.27,-32.09 8.84,-8.89 19.56,-13.33 32.15,-13.33 11.71,0 21.9,3.95 30.56,11.85l-3.83 3.4c-7.62,-6.74 -16.52,-10.11 -26.73,-10.11 -11.13,0 -20.63,3.93 -28.51,11.8 -7.89,7.86 -11.83,17.36 -11.83,28.48 0,11.17 3.94,20.68 11.83,28.55 7.88,7.86 17.38,11.8 28.51,11.8 10.21,0 19.11,-3.38 26.73,-10.11z"/>
   <polygon class="fil2 str0" points="636.86,1312.62 636.86,1317.64 597.52,1317.64 597.52,1354.46 636.86,1354.46 636.86,1359.48 597.52,1359.48 597.52,1396.31 636.86,1396.31 636.86,1401.33 592.5,1401.33 592.5,1312.62 "/>
   <path class="fil2 str0" d="M745.62 1352.2c-6.32,-2.09 -11.31,-4.97 -14.97,-8.63 -3.66,-3.66 -5.49,-8.1 -5.49,-13.33 0,-5.1 1.83,-9.49 5.49,-13.17 3.66,-3.68 8.11,-5.52 13.33,-5.52 5.15,0 9.58,1.84 13.3,5.52 2.01,1.96 3.42,4.17 4.2,6.59l-4.51 1.75c-0.67,-1.8 -1.76,-3.44 -3.26,-4.95 -2.68,-2.68 -5.92,-4.01 -9.73,-4.01 -3.8,0 -7.06,1.33 -9.76,4.01 -2.69,2.67 -4.04,5.94 -4.04,9.78 0,3.81 1.34,7.07 4.01,9.8 2.51,2.46 5.99,4.72 10.42,6.77 7.11,2.3 13.09,5.87 17.94,10.73 5.1,5.1 7.66,11.27 7.66,18.51 0,7.28 -2.56,13.48 -7.69,18.63 -5.12,5.14 -11.3,7.71 -18.54,7.71 -7.28,0 -13.47,-2.59 -18.57,-7.77 -4.14,-4.1 -6.61,-8.87 -7.4,-14.31l4.7 -1.69c0.51,4.81 2.55,8.99 6.15,12.54 4.18,4.19 9.22,6.28 15.12,6.28 5.9,0 10.94,-2.09 15.12,-6.28 4.19,-4.18 6.28,-9.22 6.28,-15.11 0,-5.86 -2.09,-10.88 -6.28,-15.06 -3.68,-3.68 -8.18,-6.61 -13.48,-8.79z"/>
   <path class="fil2 str0" d="M893.7 1316.44c-11.12,0 -20.64,3.96 -28.54,11.86 -7.91,7.9 -11.86,17.42 -11.86,28.55 0,11.16 3.95,20.7 11.86,28.6 7.9,7.91 17.42,11.86 28.54,11.86 11.17,0 20.71,-3.95 28.62,-11.86 7.9,-7.9 11.86,-17.44 11.86,-28.6 0,-11.13 -3.96,-20.65 -11.86,-28.55 -7.91,-7.9 -17.45,-11.86 -28.62,-11.86zm32.23 8.26c8.88,8.87 13.32,19.59 13.32,32.15 0,12.58 -4.44,23.32 -13.32,32.21 -8.9,8.89 -19.64,13.33 -32.23,13.33 -12.54,0 -23.26,-4.44 -32.15,-13.33 -8.89,-8.89 -13.33,-19.63 -13.33,-32.21 0,-12.56 4.44,-23.28 13.33,-32.15 8.89,-8.9 19.61,-13.34 32.15,-13.34 12.59,0 23.33,4.44 32.23,13.34z"/>
   <path class="fil2 str0" d="M1025.85 1317.7l0 47.8 15.06 0c6.57,0 12.2,-2.32 16.88,-6.99 4.68,-4.66 7.03,-10.33 7.03,-16.97 0,-6.61 -2.35,-12.23 -7.03,-16.88 -4.68,-4.64 -10.31,-6.96 -16.88,-6.96l-15.06 0zm16.57 52.82c-0.5,0.04 -1,0.07 -1.51,0.07l-15.06 0 0 30.74 -5.02 0 0 -88.71 23.28 0c6.78,0.92 12.53,3.74 17.26,8.46 5.64,5.69 8.47,12.51 8.47,20.46 0,8.03 -2.83,14.87 -8.47,20.51 -3.94,3.94 -8.43,6.51 -13.49,7.72l20.45 31.56 -6.15 0 -19.76 -30.81z"/>
   <polygon class="fil2 str0" points="1157.33,1401.33 1152.31,1401.33 1152.31,1312.61 1157.33,1312.61 "/>
   <path class="fil2 str0" d="M1285.02 1316.44c-11.12,0 -20.64,3.96 -28.54,11.86 -7.91,7.9 -11.86,17.42 -11.86,28.55 0,11.16 3.95,20.7 11.86,28.6 7.9,7.91 17.42,11.86 28.54,11.86 11.17,0 20.7,-3.95 28.61,-11.86 7.9,-7.9 11.86,-17.44 11.86,-28.6 0,-11.13 -3.96,-20.65 -11.86,-28.55 -7.91,-7.9 -17.44,-11.86 -28.61,-11.86zm32.22 8.26c8.88,8.87 13.33,19.59 13.33,32.15 0,12.58 -4.45,23.32 -13.33,32.21 -8.89,8.89 -19.63,13.33 -32.22,13.33 -12.55,0 -23.27,-4.44 -32.16,-13.33 -8.88,-8.89 -13.33,-19.63 -13.33,-32.21 0,-12.56 4.45,-23.28 13.33,-32.15 8.89,-8.9 19.61,-13.34 32.16,-13.34 12.59,0 23.33,4.44 32.22,13.34z"/>
   <path class="fil2 str0" d="M1436.19 1352.2c-6.32,-2.09 -11.31,-4.97 -14.97,-8.63 -3.66,-3.66 -5.49,-8.1 -5.49,-13.33 0,-5.1 1.83,-9.49 5.49,-13.17 3.66,-3.68 8.11,-5.52 13.33,-5.52 5.15,0 9.58,1.84 13.3,5.52 2.01,1.96 3.41,4.17 4.2,6.59l-4.51 1.75c-0.67,-1.8 -1.76,-3.44 -3.26,-4.95 -2.68,-2.68 -5.92,-4.01 -9.73,-4.01 -3.8,0 -7.06,1.33 -9.76,4.01 -2.69,2.67 -4.04,5.94 -4.04,9.78 0,3.81 1.33,7.07 4.01,9.8 2.51,2.46 5.99,4.72 10.42,6.77 7.11,2.3 13.09,5.87 17.94,10.73 5.1,5.1 7.65,11.27 7.65,18.51 0,7.28 -2.55,13.48 -7.68,18.63 -5.12,5.14 -11.3,7.71 -18.54,7.71 -7.28,0 -13.47,-2.59 -18.57,-7.77 -4.15,-4.1 -6.61,-8.87 -7.4,-14.31l4.7 -1.69c0.51,4.81 2.55,8.99 6.15,12.54 4.18,4.19 9.22,6.28 15.12,6.28 5.9,0 10.94,-2.09 15.12,-6.28 4.19,-4.18 6.27,-9.22 6.27,-15.11 0,-5.86 -2.08,-10.88 -6.27,-15.06 -3.68,-3.68 -8.18,-6.61 -13.48,-8.79z"/>
  </g>
  <polygon class="fil2" points="1595.14,1246.23 0,1246.23 0,1239.54 1595.14,1239.54 "/>
 </g>
</svg>
